<?xml version="1.0" encoding="UTF-8"?><svg id="a" xmlns="http://www.w3.org/2000/svg" width="256" height="256" xmlns:xlink="http://www.w3.org/1999/xlink" viewBox="0 0 256 256"><defs><linearGradient id="d" x1="32.5815" y1="239.5494" x2="213.3496" y2="58.4074" gradientTransform="translate(0 258) scale(1 -1)" gradientUnits="userSpaceOnUse"><stop offset="0" stop-color="#05815d"/><stop offset="1" stop-color="#0c575f"/></linearGradient><mask id="b" x="17" y="34" width="224" height="138" maskUnits="userSpaceOnUse"><g id="c"><path d="M104.425,42.3784c-4.369-5.3051-10.8813-8.3784-17.7538-8.3784H29c-6.6274,0-12,5.3726-12,12v114c0,6.627,5.3726,12,12,12h200c6.627,0,12-5.373,12-12v-89.8629c0-6.6274-5.373-12-12-12h-111.596l-12.979-15.7587Z" fill="url(#d)" fill-rule="evenodd"/></g></mask><linearGradient id="e" x1="17" y1="196" x2="241" y2="48" gradientTransform="translate(0 258) scale(1 -1)" gradientUnits="userSpaceOnUse"><stop offset="0" stop-color="#f99191"/><stop offset=".9531" stop-color="#ed2924"/></linearGradient><linearGradient id="f" x1="16.9254" y1="57.3174" x2="240.9429" y2="54.8172" gradientTransform="translate(0 258) scale(1 -1)" gradientUnits="userSpaceOnUse"><stop offset="0" stop-color="#ffcf4e"/><stop offset=".005" stop-color="#e15f59"/><stop offset="1" stop-color="#a01212"/></linearGradient><linearGradient id="g" x1="17" y1="76" x2="241" y2="76" gradientUnits="userSpaceOnUse"><stop offset="0" stop-color="#e57c7c"/><stop offset="1" stop-color="#e55a5a"/></linearGradient><filter id="h" x="112" y="105" width="133" height="109" filterUnits="userSpaceOnUse"><feOffset dx="5" dy="5"/><feGaussianBlur result="i" stdDeviation="9"/><feFlood flood-color="#000" flood-opacity=".57"/><feComposite in2="i" operator="in"/><feComposite in="SourceGraphic"/></filter></defs><path d="M104.425,42.3784c-4.369-5.3051-10.8813-8.3784-17.7538-8.3784H29c-6.6274,0-12,5.3726-12,12v114c0,6.627,5.3726,12,12,12h200c6.627,0,12-5.373,12-12v-89.8629c0-6.6274-5.373-12-12-12h-111.596l-12.979-15.7587Z" fill="#db4242" fill-rule="evenodd"/><g mask="url(#b)"><path d="M92.789,74c4.9752,0,9.816-1.6132,13.797-4.5976l9.873-7.4024h112.541c6.627,0,12,5.3726,12,12v86c0,6.627-5.373,12-12,12H29c-6.6274,0-12-5.373-12-12v-74c0-6.6274,5.3726-12,12-12h63.789Z" fill="#a6a1a1" fill-rule="evenodd"/></g><path d="M92.789,74c4.9752,0,9.816-1.6132,13.797-4.5976l9.873-7.4024h112.541c6.627,0,12,5.3726,12,12v124c0,6.627-5.373,12-12,12H29c-6.6274,0-12-5.373-12-12v-112c0-6.6274,5.3726-12,12-12h63.789Z" fill="url(#e)" fill-rule="evenodd"/><path d="M17,194v4c0,6.6274,5.3726,12,12,12h200c6.627,0,12-5.3726,12-12v-4c0,6.6274-5.373,12-12,12H29c-6.6274,0-12-5.3726-12-12Z" fill="url(#f)" fill-rule="evenodd"/><path d="M106.5859,69.4024c-3.9807,2.9844-8.8217,4.5976-13.7969,4.5976H29c-6.6274,0-12,5.3726-12,12v4c0-6.6274,5.3726-12,12-12h63.789c4.9752,0,9.8162-1.6132,13.7969-4.5976l9.8733-7.4024h112.5408c6.627,0,12,5.3726,12,12v-4c0-6.6274-5.373-12-12-12h-112.5408l-9.8733,7.4024Z" fill="url(#g)" fill-rule="evenodd"/><g filter="url(#h)"><path d="M134.9053,181.5498c-.2803,0-.6299-.2803-.6299-.6299v-52.3652c0-.3506.2803-.5605.6299-.5605h9.1016c.3496,0,.6299.3506.6299.7002v12.251c0,.4199.1396.5605.21.5605.1396,0,.2803-.1406.6299-.4902,1.0498-1.0498,2.3799-1.4697,3.9902-1.4697,3.5703,0,7.9814,2.7998,7.9814,13.4414v14.6309c0,11.4814-3.9912,13.9316-7.4912,13.9316-1.6104,0-3.0801-.4902-4.1309-1.2598-.4199-.3506-.6299-.4902-.7695-.4902-.3506,0-1.0498,1.75-1.3301,1.75h-8.8213ZM144.6367,169.1582c0,.6299.21,1.0508.5596,1.3301.1406.21.4902.3506.7705.3506.9102,0,.9102-.9102.9102-1.3301v-17.5723c0-.7002-.2803-1.3301-.9102-1.3301-.7705,0-1.3301.7705-1.3301,1.8203v16.7314Z" fill="#fff"/><path d="M161.1553,181.5498c-.2803,0-.5596-.3496-.5596-.6299v-52.0859c0-.6299.2793-.8398.7695-.8398h9.8711c.4902,0,.7002.21.7002.6299v52.3652c0,.2803-.2803.5605-.5605.5605h-10.2207Z" fill="#fff"/><path d="M212.0488,180.7793c0,.4209-.21.7705-.6309.7705h-9.3809c-.3496,0-.6299-.3496-.6299-.7705v-28.3525c0-1.0498-.5596-1.4697-1.1201-1.4697-.5596,0-1.1201.4199-1.1201,1.4697v28.4229c0,.4199-.21.7002-.6299.7002h-9.5908c-.3506,0-.6299-.21-.6299-.6299v-28.5635c0-1.0498-.5605-1.3994-1.1201-1.3994-.5605,0-1.1201.3496-1.1201,1.3994v28.7031c0,.2803-.2109.4902-.5605.4902h-9.5908c-.2803,0-.4902-.21-.4902-.5605v-40.8838c0-.2803.2803-.5596.6299-.5596h9.1709c.5605,0,.9805,3.0098,1.4707,3.0098.21,0,.4199-.1396.7695-.5596,1.1201-1.2607,3.0107-2.4502,5.251-2.4502,2.5205,0,4.2002,1.0498,5.3203,2.5195.3506.4902.6299.7002.8398.7002s.5605-.21.8408-.5596c1.3301-1.2607,3.0801-2.6602,5.7402-2.6602,3.5703,0,6.5811,3.2197,6.5811,7.2803v33.9531Z" fill="#fff"/></g></svg>